<svg width="23" height="23" viewBox="0 0 23 23" fill="none" xmlns="http://www.w3.org/2000/svg">
<path d="M4.3125 20.8438C3.74063 20.8438 3.19218 20.6166 2.7878 20.2122C2.38343 19.8078 2.15625 19.2594 2.15625 18.6875V4.3125C2.15625 3.74063 2.38343 3.19218 2.7878 2.7878C3.19218 2.38343 3.74063 2.15625 4.3125 2.15625H15.8125C16.0031 2.15625 16.1859 2.23198 16.3207 2.36677C16.4555 2.50156 16.5312 2.68438 16.5312 2.875C16.5312 3.06562 16.4555 3.24844 16.3207 3.38323C16.1859 3.51802 16.0031 3.59375 15.8125 3.59375H4.3125C4.12188 3.59375 3.93906 3.66948 3.80427 3.80427C3.66948 3.93906 3.59375 4.12188 3.59375 4.3125V18.6875C3.59375 18.8781 3.66948 19.0609 3.80427 19.1957C3.93906 19.3305 4.12188 19.4062 4.3125 19.4062H18.6875C18.8781 19.4062 19.0609 19.3305 19.1957 19.1957C19.3305 19.0609 19.4062 18.8781 19.4062 18.6875V11.5C19.4062 11.3094 19.482 11.1266 19.6168 10.9918C19.7516 10.857 19.9344 10.7812 20.125 10.7812C20.3156 10.7812 20.4984 10.857 20.6332 10.9918C20.768 11.1266 20.8438 11.3094 20.8438 11.5V18.6875C20.8438 19.2594 20.6166 19.8078 20.2122 20.2122C19.8078 20.6166 19.2594 20.8438 18.6875 20.8438H4.3125Z" fill="black"/>
<path d="M12.0089 14.8839L22.0714 4.82137C22.1383 4.75454 22.1913 4.67521 22.2274 4.58789C22.2636 4.50058 22.2822 4.407 22.2822 4.31249C22.2822 4.21799 22.2636 4.1244 22.2274 4.03709C22.1913 3.94978 22.1383 3.87044 22.0714 3.80362C22.0046 3.73679 21.9253 3.68378 21.838 3.64762C21.7506 3.61145 21.6571 3.59283 21.5626 3.59283C21.468 3.59283 21.3745 3.61145 21.2872 3.64762C21.1998 3.68378 21.1205 3.73679 21.0537 3.80362L11.5001 13.3587L7.69643 9.55362C7.6296 9.48679 7.55027 9.43378 7.46296 9.39761C7.37564 9.36145 7.28206 9.34283 7.18755 9.34283C7.09305 9.34283 6.99947 9.36145 6.91215 9.39761C6.82484 9.43378 6.74551 9.48679 6.67868 9.55362C6.61185 9.62044 6.55884 9.69978 6.52268 9.78709C6.48651 9.8744 6.4679 9.96799 6.4679 10.0625C6.4679 10.157 6.48651 10.2506 6.52268 10.3379C6.55884 10.4252 6.61185 10.5045 6.67868 10.5714L10.9912 14.8839C11.0579 14.9508 11.1373 15.0039 11.2246 15.0401C11.3119 15.0764 11.4055 15.095 11.5001 15.095C11.5946 15.095 11.6882 15.0764 11.7755 15.0401C11.8628 15.0039 11.9422 14.9508 12.0089 14.8839Z" fill="#FF0000"/>
</svg>
