<svg width="25" height="25" viewBox="0 0 25 25" fill="none" xmlns="http://www.w3.org/2000/svg">
<path fill-rule="evenodd" clip-rule="evenodd" d="M2.57181 17.7407C2.49905 17.6681 2.44133 17.5819 2.40194 17.487C2.36256 17.3921 2.34229 17.2903 2.34229 17.1876C2.34229 17.0848 2.36256 16.9831 2.40194 16.8881C2.44133 16.7932 2.49905 16.707 2.57181 16.6344L11.9468 7.25944C12.0194 7.18669 12.1056 7.12897 12.2005 7.08958C12.2954 7.0502 12.3972 7.02992 12.4999 7.02992C12.6027 7.02992 12.7044 7.0502 12.7994 7.08958C12.8943 7.12897 12.9805 7.18669 13.0531 7.25944L22.4281 16.6344C22.5748 16.7811 22.6572 16.9801 22.6572 17.1876C22.6572 17.395 22.5748 17.594 22.4281 17.7407C22.2814 17.8874 22.0824 17.9698 21.8749 17.9698C21.6675 17.9698 21.4685 17.8874 21.3218 17.7407L12.4999 8.91726L3.67806 17.7407C3.60549 17.8134 3.51927 17.8712 3.42436 17.9106C3.32945 17.9499 3.22769 17.9702 3.12493 17.9702C3.02217 17.9702 2.92042 17.9499 2.8255 17.9106C2.73059 17.8712 2.64438 17.8134 2.57181 17.7407Z" fill="#1D407C"/>
</svg>
