<svg width="23" height="23" viewBox="0 0 23 23" fill="none" xmlns="http://www.w3.org/2000/svg">
<g clip-path="url(#clip0_131_298)">
<path d="M2.37158 3.375C1.72023 3.37496 1.08816 3.59609 0.578907 4.00219C0.069649 4.40829 -0.286617 4.97529 -0.431543 5.61031L10.9966 12.5951L22.4247 5.61031C22.2798 4.97529 21.9235 4.40829 21.4143 4.00219C20.905 3.59609 20.2729 3.37496 19.6216 3.375H2.37158ZM-0.503418 17.4625V7.25338L7.83839 12.3508L-0.503418 17.4625ZM9.21552 13.1931L-0.228855 18.9805C0.00428295 19.4728 0.372482 19.8887 0.832864 20.1799C1.29325 20.471 1.82687 20.6254 2.37158 20.625H11.3646C11.1204 19.9324 10.996 19.2032 10.9966 18.4688C10.9956 17.5245 11.2018 16.5914 11.6007 15.7355C11.9996 14.8796 12.5815 14.1217 13.3052 13.5151L12.7776 13.1917L10.9966 14.2799L9.21552 13.1931ZM22.4966 14.4021V7.25194L14.1548 12.3493L14.6406 12.6483C15.5211 12.2214 16.4869 11.9997 17.4653 12C19.498 12 21.3106 12.9372 22.4966 14.4021Z" fill="white"/>
<path d="M22.258 18.1008C22.258 19.7798 21.4285 21.0117 19.9766 21.0117C19.2536 21.0117 18.5363 20.6839 18.3666 20.0802H18.3048C18.1352 20.6782 17.5243 21.0045 16.8458 21.0045C15.7389 21.0045 15.036 20.2254 15.036 18.9431V18.1827C15.036 16.9694 15.7274 16.1702 16.8472 16.1702C17.6881 16.1702 18.0978 16.6489 18.2171 17.0758H18.2603V16.2593H19.5612V19.4074C19.5612 19.7984 19.82 20.0112 20.152 20.0112C20.6048 20.0112 21.0706 19.4146 21.0706 18.0131V17.8434C21.0706 16.0077 19.705 14.4998 17.4998 14.4998H17.4423C15.1682 14.4998 13.6473 16.0336 13.6473 18.4156V18.6412C13.6473 21.3251 15.4255 22.4564 17.3417 22.4564H17.4064C18.1352 22.4564 18.7505 22.3558 19.1026 22.1976V23.2484C18.7878 23.3922 18.1783 23.5 17.3245 23.5H17.2612C14.5012 23.5 12.4341 21.8038 12.4341 18.6786V18.371C12.4341 15.3925 14.4768 13.4375 17.4438 13.4375H17.4941C20.5416 13.4375 22.258 15.4931 22.258 17.7989V18.1008ZM16.4505 18.4026V18.7289C16.4505 19.5713 16.7768 19.8789 17.2856 19.8789C17.7313 19.8789 18.0964 19.6346 18.0964 18.8109V18.2833C18.0964 17.5416 17.7011 17.2656 17.2741 17.2656C16.7768 17.2656 16.4505 17.6178 16.4505 18.4026Z" fill="white"/>
</g>
<defs>
<clipPath id="clip0_131_298">
<rect width="23" height="23" fill="white" transform="translate(-0.00341797)"/>
</clipPath>
</defs>
</svg>
