<svg width="32" height="32" viewBox="0 0 32 32" fill="none" xmlns="http://www.w3.org/2000/svg">
<g clip-path="url(#clip0_156_296)">
<path d="M21.3791 19.3695C22.7711 17.4701 23.3945 15.1152 23.1247 12.7759C22.8549 10.4366 21.7118 8.28542 19.924 6.75275C18.1363 5.22007 15.8358 4.41893 13.4827 4.5096C11.1296 4.60026 8.89759 5.57606 7.23308 7.24175C5.56858 8.90745 4.59438 11.1402 4.5054 13.4933C4.41641 15.8465 5.2192 18.1464 6.75316 19.9331C8.28711 21.7197 10.4391 22.8613 12.7786 23.1294C15.1181 23.3975 17.4726 22.7724 19.3709 21.3791H19.3695C19.4117 21.4366 19.4586 21.4917 19.5104 21.5444L25.0448 27.0788C25.3143 27.3485 25.68 27.5002 26.0613 27.5003C26.4426 27.5004 26.8084 27.3491 27.0781 27.0795C27.3478 26.81 27.4994 26.4443 27.4996 26.063C27.4997 25.6817 27.3484 25.3159 27.0788 25.0462L21.5444 19.5118C21.4931 19.4598 21.4378 19.4131 21.3791 19.3695ZM21.75 13.8437C21.75 14.882 21.5455 15.9101 21.1482 16.8693C20.7509 17.8286 20.1685 18.7001 19.4343 19.4343C18.7002 20.1685 17.8286 20.7508 16.8693 21.1482C15.9101 21.5455 14.882 21.75 13.8438 21.75C12.8055 21.75 11.7774 21.5455 10.8182 21.1482C9.85894 20.7508 8.98736 20.1685 8.2532 19.4343C7.51903 18.7001 6.93666 17.8286 6.53934 16.8693C6.14201 15.9101 5.93751 14.882 5.93751 13.8437C5.93751 11.7469 6.77049 9.7359 8.2532 8.25319C9.73591 6.77048 11.7469 5.9375 13.8438 5.9375C15.9406 5.9375 17.9516 6.77048 19.4343 8.25319C20.917 9.7359 21.75 11.7469 21.75 13.8437Z" fill="white"/>
</g>
<defs>
<clipPath id="clip0_156_296">
<rect width="23" height="23" fill="white" transform="translate(4.5 4.5)"/>
</clipPath>
</defs>
</svg>
