<!-- icon666.com - MILLIONS vector ICONS FREE --><svg viewBox="0 0 512.00035 512" xmlns="http://www.w3.org/2000/svg"><path d="m193.828125 343.65625c2.929687 4.144531 7.558594 6.355469 12.273437 6.355469 2.988282 0 6.007813-.894531 8.628907-2.738281l24.523437-17.296876c6.765625-4.777343 8.382813-14.136718 3.609375-20.902343l-103.757812-147.085938c-4.773438-6.769531-14.132813-8.386719-20.902344-3.613281l-24.519531 17.296875c-6.769532 4.773437-8.382813 14.128906-3.609375 20.898437zm0 0"></path><path d="m337.308594 260.804688c21.660156-15.269532 40.210937-33.164063 54.769531-52.472657l-108.023437-153.136719c-23.050782 7.238282-46.113282 18.730469-67.785157 34.003907-21.671875 15.292969-40.238281 33.167969-54.789062 52.460937l108.035156 153.148438c23.074219-7.238282 46.140625-18.730469 67.792969-34.003906zm0 0"></path><path d="m414.464844 188.023438c4.773437 6.769531 14.132812 8.386718 20.902344 3.609374l24.511718-17.289062c6.769532-4.773438 8.382813-14.132812 3.609375-20.898438l-103.757812-147.089843c-4.773438-6.769531-14.128907-8.386719-20.898438-3.613281l-24.511719 17.289062c-6.769531 4.777344-8.386718 14.136719-3.609374 20.90625zm0 0"></path><path d="m354.59375 285.324219c-12.566406 8.871093-25.683594 16.253906-38.964844 22.808593l36.792969 52.160157 73.546875-51.882813-36.789062-52.152344c-10.640626 10.320313-22.003907 20.203126-34.585938 29.066407zm0 0"></path><path d="m369.6875 386.859375 73.542969-51.878906 17.289062 24.507812-73.542969 51.878907zm0 0"></path><path d="m503.789062 420.78125-25.945312-36.777344-73.542969 51.875 25.9375 36.773438c8.761719 12.40625 22.691407 19.042968 36.84375 19.042968 8.964844 0 18.003907-2.664062 25.867188-8.203124 20.289062-14.308594 25.136719-42.449219 10.839843-62.710938zm0 0"></path><path d="m330 377c0-8.292969-6.710938-15-15-15h-240c-8.289062 0-15 6.707031-15 15v45h270zm0 0"></path><path d="m375 452h-360c-8.285156 0-15 6.714844-15 15v30c0 8.285156 6.714844 15 15 15h360c8.285156 0 15-6.714844 15-15v-30c0-8.285156-6.714844-15-15-15zm0 0"></path></svg>