<svg width="24" height="24" viewBox="0 0 24 24" fill="none" xmlns="http://www.w3.org/2000/svg">
<path fill-rule="evenodd" clip-rule="evenodd" d="M4.23893 3.60586C4.4467 3.39838 4.6962 3.23743 4.97087 3.13367C5.24555 3.02992 5.53914 2.98573 5.83219 3.00403C6.12524 3.02233 6.41105 3.10271 6.67069 3.23984C6.93032 3.37696 7.15786 3.56771 7.3382 3.79943L9.4697 6.53793C9.86038 7.04026 9.99812 7.69461 9.84375 8.31213L9.19421 10.9129C9.16086 11.0476 9.16279 11.1886 9.19981 11.3224C9.23684 11.4561 9.3077 11.5781 9.40558 11.6765L12.3232 14.5943C12.4217 14.6924 12.5438 14.7634 12.6778 14.8004C12.8118 14.8374 12.953 14.8392 13.0879 14.8057L15.6873 14.1561C15.992 14.0803 16.31 14.0746 16.6172 14.1394C16.9245 14.2042 17.2131 14.3378 17.4613 14.5302L20.1996 16.6606C21.184 17.4266 21.2743 18.8814 20.3932 19.7613L19.1653 20.9893C18.2866 21.8681 16.9733 22.254 15.749 21.8229C12.6149 20.7216 9.76958 18.9274 7.42489 16.5739C5.07178 14.2294 3.27774 11.3843 2.1763 8.25038C1.74644 7.0272 2.13237 5.71258 3.01109 4.83379L4.23893 3.60586Z" fill="#1D407C"/>
</svg>
