<svg width="29" height="29" viewBox="0 0 29 29" fill="none" xmlns="http://www.w3.org/2000/svg">
<path fill-rule="evenodd" clip-rule="evenodd" d="M5.82299 4.7237C6.08497 4.47586 6.39955 4.28361 6.74589 4.15967C7.09222 4.03574 7.4624 3.98295 7.83189 4.00481C8.20139 4.02668 8.56176 4.12269 8.88913 4.28649C9.2165 4.45029 9.50338 4.67813 9.73078 4.95492L12.4183 8.22608C12.9109 8.82613 13.0846 9.60774 12.8899 10.3454L12.071 13.452C12.0289 13.6129 12.0313 13.7814 12.078 13.9412C12.1247 14.1009 12.2141 14.2466 12.3375 14.3641L16.0162 17.8495C16.1404 17.9666 16.2944 18.0514 16.4633 18.0957C16.6322 18.1399 16.8103 18.1421 16.9804 18.102L20.2578 17.326C20.6421 17.2355 21.043 17.2287 21.4304 17.3061C21.8179 17.3835 22.1817 17.5431 22.4947 17.7729L25.9473 20.3177C27.1885 21.2327 27.3023 22.9704 26.1914 24.0216L24.6432 25.4883C23.5353 26.5381 21.8793 26.9991 20.3357 26.4842C16.384 25.1686 12.7964 23.0254 9.84008 20.2142C6.87311 17.4136 4.61106 14.0151 3.2223 10.2716C2.6803 8.81052 3.1669 7.24019 4.27485 6.19047L5.82299 4.7237Z" fill="white"/>
</svg>
